<svg xmlns="http://www.w3.org/2000/svg" viewBox="0 0 512 512" width="192" height="192">
  <defs>
    <linearGradient id="bg" x1="0%" y1="0%" x2="100%" y2="100%">
      <stop offset="0%" stop-color="#0f172a"/>
      <stop offset="60%" stop-color="#1e3a8a"/>
      <stop offset="100%" stop-color="#1d4ed8"/>
    </linearGradient>
    <linearGradient id="trunk" x1="0%" y1="0%" x2="100%" y2="0%">
      <stop offset="0%" stop-color="#065f46"/>
      <stop offset="100%" stop-color="#047857"/>
    </linearGradient>
    <radialGradient id="glow" cx="50%" cy="45%" r="45%">
      <stop offset="0%" stop-color="#34d399" stop-opacity="0.18"/>
      <stop offset="100%" stop-color="#34d399" stop-opacity="0"/>
    </radialGradient>
    <radialGradient id="shine" cx="30%" cy="18%" r="55%">
      <stop offset="0%" stop-color="#ffffff" stop-opacity="0.07"/>
      <stop offset="100%" stop-color="#ffffff" stop-opacity="0"/>
    </radialGradient>
  </defs>

  <rect width="512" height="512" rx="96" ry="96" fill="url(#bg)"/>
  <rect width="512" height="512" rx="96" ry="96" fill="url(#shine)"/>

  <ellipse cx="256" cy="248" rx="190" ry="190" fill="url(#glow)"/>

  <rect x="233" y="388" width="46" height="72" rx="14" fill="url(#trunk)"/>

  <ellipse cx="256" cy="325" rx="116" ry="76" fill="#065f46"/>
  <ellipse cx="256" cy="325" rx="112" ry="72" fill="#047857"/>
  <ellipse cx="256" cy="258" rx="92" ry="64" fill="#059669"/>
  <ellipse cx="256" cy="196" rx="70" ry="54" fill="#10b981"/>
  <ellipse cx="256" cy="142" rx="50" ry="42" fill="#34d399"/>
  <ellipse cx="256" cy="98" rx="32" ry="30" fill="#6ee7b7"/>

  <circle cx="256" cy="76" r="12" fill="#a7f3d0" opacity="0.9"/>
  <circle cx="256" cy="76" r="6" fill="white" opacity="0.7"/>

  <circle cx="128" cy="210" r="7"   fill="#fbbf24" opacity="0.90"/>
  <circle cx="390" cy="248" r="5.5" fill="#fbbf24" opacity="0.85"/>
  <circle cx="148" cy="348" r="5"   fill="#fcd34d" opacity="0.75"/>
  <circle cx="372" cy="168" r="6"   fill="#fbbf24" opacity="0.88"/>
  <circle cx="358" cy="330" r="4"   fill="#fcd34d" opacity="0.70"/>
  <circle cx="172" cy="138" r="4.5" fill="#fbbf24" opacity="0.78"/>
</svg>
